<svg xmlns="http://www.w3.org/2000/svg" viewBox="0 0 356.49 614.82"><defs><style>.cls-1,.cls-11{fill:#231f20;}.cls-1{opacity:0.3;}.cls-2,.cls-7,.cls-8{fill:#fff;}.cls-10,.cls-2{opacity:0.4;}.cls-3{fill:#f1c08d;}.cls-4{fill:#eca053;}.cls-5{fill:#533215;}.cls-6{fill:#414142;}.cls-8{opacity:0.5;}.cls-9{fill:#f2f2f2;}.cls-10{fill:#e6e7e7;}.cls-11{font-size:14px;font-family:OpenSans-Light, Open Sans;font-weight:300;}</style></defs><g id="Layer_2" data-name="Layer 2"><g id="Layer_1-2" data-name="Layer 1"><g id="Dirty_Brown_Sugar" data-name="Dirty Brown Sugar"><path class="cls-1" d="M347.6,263.74h-4.55a145.18,145.18,0,0,0-127-144v-76a8.56,8.56,0,0,0-8.56-8.56H189.53A9.83,9.83,0,0,0,179.71,45v74.7a145.18,145.18,0,0,0-127,144H48.12a8.89,8.89,0,0,0-8.9,8.9v1.58a8.89,8.89,0,0,0,8.9,8.89h4.55L90.39,593.3a24.47,24.47,0,0,0,24.29,21.52H281a24.48,24.48,0,0,0,24.29-21.52L343,283.11h4.56a8.89,8.89,0,0,0,8.89-8.89v-1.58A8.89,8.89,0,0,0,347.6,263.74Z"/><path id="Glass_Side" data-name="Glass Side" class="cls-2" d="M241.82,579.62H75.46A24.46,24.46,0,0,1,51.17,558.1L13.45,247.92H303.82L266.11,558.1A24.47,24.47,0,0,1,241.82,579.62Z"/><path id="Top_Tea" data-name="Top Tea" class="cls-3" d="M235.78,568H81.49C70,568,60.34,557.51,59,543.54L27.85,238.23H289.42l-31.1,305.31C256.93,557.51,247.26,568,235.78,568Z"/><path id="Top_Tea_Shadow" data-name="Top Tea Shadow" class="cls-4" d="M158.64,568h77.14c11.48,0,21.15-10.51,22.54-24.48l31.1-305.31H158.64Z"/><path id="Bottom_Tea" data-name="Bottom Tea" class="cls-5" d="M258.32,543.54l7-68.56H52l7,68.56C60.34,557.51,70,568,81.49,568H235.78C247.26,568,256.93,557.51,258.32,543.54Z"/><g id="Black_Bubbles" data-name="Black Bubbles"><path class="cls-6" d="M104.36,547.19A14.37,14.37,0,1,1,90,532.83,14.37,14.37,0,0,1,104.36,547.19Z"/><circle class="cls-6" cx="140.7" cy="545.55" r="14.37"/><circle class="cls-6" cx="175.71" cy="545.55" r="14.37"/><circle class="cls-6" cx="226.57" cy="548.77" r="14.37"/><path class="cls-6" d="M256.27,515.25a14.37,14.37,0,1,1-14.37-14.36A14.37,14.37,0,0,1,256.27,515.25Z"/><circle class="cls-6" cx="180.55" cy="470.68" r="14.37"/><path class="cls-6" d="M137.19,477a14.37,14.37,0,1,1-14.36-14.36A14.36,14.36,0,0,1,137.19,477Z"/><path class="cls-6" d="M99.58,509a14.37,14.37,0,1,1-14.37-14.37A14.37,14.37,0,0,1,99.58,509Z"/><path class="cls-6" d="M151.56,515.22a14.37,14.37,0,1,1-14.37-14.37A14.37,14.37,0,0,1,151.56,515.22Z"/><path class="cls-6" d="M211,519.29a14.37,14.37,0,1,1-14.37-14.37A14.37,14.37,0,0,1,211,519.29Z"/><g id="Highlight"><path class="cls-7" d="M142,509.67a4.79,4.79,0,1,1-4.79-4.78A4.78,4.78,0,0,1,142,509.67Z"/><path class="cls-7" d="M201.45,513.73a4.78,4.78,0,1,1-4.78-4.78A4.78,4.78,0,0,1,201.45,513.73Z"/><path class="cls-7" d="M246.68,510.47a4.78,4.78,0,1,1-4.78-4.78A4.78,4.78,0,0,1,246.68,510.47Z"/><path class="cls-7" d="M185.33,465.9a4.78,4.78,0,1,1-4.78-4.78A4.78,4.78,0,0,1,185.33,465.9Z"/><path class="cls-7" d="M127.61,472.17a4.79,4.79,0,1,1-4.78-4.78A4.78,4.78,0,0,1,127.61,472.17Z"/><path class="cls-7" d="M90,504.17a4.78,4.78,0,1,1-4.78-4.78A4.78,4.78,0,0,1,90,504.17Z"/><path class="cls-7" d="M94.77,542.41A4.78,4.78,0,1,1,90,537.63,4.78,4.78,0,0,1,94.77,542.41Z"/><path class="cls-7" d="M145.48,540.77A4.78,4.78,0,1,1,140.7,536,4.78,4.78,0,0,1,145.48,540.77Z"/><path class="cls-7" d="M180.5,540.77a4.79,4.79,0,1,1-4.79-4.78A4.78,4.78,0,0,1,180.5,540.77Z"/><circle class="cls-7" cx="226.57" cy="543.99" r="4.78"/></g></g><path id="Straw" class="cls-2" d="M145.79,0h25.69a5.31,5.31,0,0,1,5.31,5.31v438a4.39,4.39,0,0,1-4.39,4.39H144.88a4.39,4.39,0,0,1-4.39-4.39V5.31A5.31,5.31,0,0,1,145.79,0Z"/><path id="Straw_Shadow" data-name="Straw Shadow" class="cls-8" d="M168.23,0h-9.59V447.68h11.07a7.08,7.08,0,0,0,7.08-7.08V8.55A8.55,8.55,0,0,0,168.23,0Z"/><path id="Highlight-2" data-name="Highlight" class="cls-7" d="M66.52,437.51h0a8.33,8.33,0,0,1-9.19-7.38L46,326.69a8.33,8.33,0,0,1,7.37-9.2h0a8.33,8.33,0,0,1,9.19,7.38L73.9,428.31A8.34,8.34,0,0,1,66.52,437.51Z"/><path id="Top_Highlight" data-name="Top Highlight" class="cls-7" d="M80.43,455.58a10.32,10.32,0,1,1-10.32-10.31A10.32,10.32,0,0,1,80.43,455.58Z"/><path id="Bear_Cap" data-name="Bear Cap" class="cls-2" d="M158.64,83.35A145.2,145.2,0,0,0,13.44,228.54H303.83A145.19,145.19,0,0,0,158.64,83.35Z"/><g id="Bear_Cap_Highlight" data-name="Bear Cap Highlight"><path class="cls-7" d="M115.81,129.11h.25c4.1,0,5-5.79,1-6.86a49.36,49.36,0,0,0-61.64,40A6.64,6.64,0,0,0,62,169.88h0a6.61,6.61,0,0,0,6.36-4.81A49.33,49.33,0,0,1,115.81,129.11Z"/><path class="cls-7" d="M65.23,179.81a6.69,6.69,0,1,1-6.69-6.68A6.69,6.69,0,0,1,65.23,179.81Z"/></g><polygon id="Cheese_Foam" data-name="Cheese Foam" class="cls-7" points="285.91 272.68 289.42 238.23 27.85 238.23 31.36 272.68 285.91 272.68"/><polygon id="Cheese_Foam_Shadow" data-name="Cheese Foam Shadow" class="cls-9" points="158.64 272.68 285.91 272.68 289.42 238.23 158.64 238.23 158.64 272.68"/><path id="Lid" class="cls-10" d="M307.59,247.92H9.69A9.69,9.69,0,0,1,0,238.23H0a9.69,9.69,0,0,1,9.69-9.69h297.9a9.68,9.68,0,0,1,9.68,9.69h0A9.68,9.68,0,0,1,307.59,247.92Z"/><g id="Cup_Logo" data-name="Cup Logo"><text class="cls-11" transform="translate(154.21 375.11) rotate(90) scale(1.5 1)">möge tee</text><path d="M142.73,360.61H112.88V281.06h65v.58h-64V285c0,23.9.06,47.79-.07,71.68,0,2.74,1,3.46,4,3.4,8.3-.17,16.6-.06,24.9-.06Z"/><path d="M204.39,360.61h-28.7l0-.62h3.63c7.13,0,14.26-.05,21.4,0,2.17,0,3.05-.49,3-2.51q-.09-37,0-73.91c0-.45-.1-.91-.21-1.8h-14.9v-.7h15.81Z"/><path d="M157.29,321.58l.74-4.27.75-.09.91,4.25h19.45l0,1H159.18v28.07H158V322.62H138.42v-1Z"/><path d="M196,321.68c-2.55-.85-5.12-1.68-7.66-2.58-8.87-3.15-17.69-6.42-26.64-9.42a9.88,9.88,0,0,0-5.75,0c-10.55,3.56-21,7.36-31.47,11.07-1,.36-2.07.64-3.1,1L121,321a15.7,15.7,0,0,1,2-1c10.86-3.9,21.7-7.85,32.64-11.56a10.48,10.48,0,0,1,6.1-.09c11,3.74,22,7.74,32.93,11.67a17.23,17.23,0,0,1,1.77.89Z"/><path d="M190.14,298.27h-15l-.88,4.39-1.06-.05-.36-3.89h-4.34l-.87,4-.94-.06-.45-4-5.33-.42,0-.93,5.38-.37.35-5.24,1.18-.08.56,5.24h4.47l.35-5.09,1.12-.12.76,5.5h15Z"/><path d="M143.89,302.52l-.5-4.25H127.72l0-1h15.68l.44-5.5.88,0,.62,5.22h4.08l.48-5.26,1.1,0,.68,5.23,5.39.47,0,.8-5.43.57-.59,3.94H150l-.59-4h-4.1l-.48,3.81Z"/><path d="M141.33,350.54v-20.2C142.77,331.84,143,347.42,141.33,350.54Z"/><path d="M176.93,350.53V330.7C178.44,332.25,178.65,347.54,176.93,350.53Z"/></g></g></g></g></svg>