<svg xmlns="http://www.w3.org/2000/svg" viewBox="0 0 213.46 390.4"><defs><style>.cls-1{isolation:isolate;}.cls-2{fill:#add6ec;}.cls-3,.cls-4{fill:#d09f64;}.cls-4{opacity:0.55;mix-blend-mode:multiply;}.cls-5{fill:#3f4c5b;}.cls-6{fill:#fff;}.cls-7{fill:#303a4a;}.cls-8{opacity:0.44;}.cls-9{fill:#d9dbda;}.cls-10{font-size:14px;fill:#231f20;font-family:OpenSans, Open Sans;}</style></defs><g class="cls-1"><g id="Layer_2" data-name="Layer 2"><g id="Layer_1-2" data-name="Layer 1"><path class="cls-2" d="M163.1,390.4H50.36c-13.83,0-25.25-14.52-26-33L11,22.77H202.5L189.09,357.35C188.35,375.88,176.93,390.4,163.1,390.4Z"/><path class="cls-3" d="M50.36,378.2c-9,0-16.43-9.45-16.91-21.51L20.55,35H192.91L180,356.69c-.48,12.06-7.91,21.51-16.91,21.51Z"/><path class="cls-4" d="M180,348c-.48,12.06-7.91,21.51-16.91,21.51H50.36c-9,0-16.43-9.45-16.91-21.51v8.74c.48,12.06,7.91,21.51,16.91,21.51H163.1c9,0,16.43-9.45,16.91-21.51Z"/><g id="Black_Bubbles" data-name="Black Bubbles"><circle class="cls-5" cx="60.32" cy="360.02" r="16.06" transform="translate(-236.9 148.1) rotate(-45)"/><path class="cls-6" d="M59.79,353.65A3.79,3.79,0,1,1,56,349.86,3.79,3.79,0,0,1,59.79,353.65Z"/><path class="cls-7" d="M60.32,370.4a16,16,0,0,1-15.79-13.22,15.63,15.63,0,0,0-.27,2.84,16.07,16.07,0,0,0,32.13,0,15.63,15.63,0,0,0-.27-2.84A16.06,16.06,0,0,1,60.32,370.4Z"/><circle class="cls-5" cx="94.19" cy="351.68" r="16.06" transform="translate(-221.09 169.61) rotate(-45)"/><circle class="cls-6" cx="89.87" cy="345.32" r="3.79"/><path class="cls-7" d="M94.19,362.06A16,16,0,0,1,78.4,348.84a15.71,15.71,0,0,0-.27,2.84,16.06,16.06,0,1,0,32.12,0,16.66,16.66,0,0,0-.26-2.84A16.06,16.06,0,0,1,94.19,362.06Z"/><circle class="cls-5" cx="106.73" cy="361.84" r="16.06" transform="translate(-267.53 409.23) rotate(-80.78)"/><circle class="cls-6" cx="102.41" cy="355.47" r="3.79"/><path class="cls-7" d="M106.73,372.22A16.07,16.07,0,0,1,90.93,359a16.69,16.69,0,0,0-.26,2.85,16.06,16.06,0,1,0,32.12,0,16.69,16.69,0,0,0-.26-2.85A16.07,16.07,0,0,1,106.73,372.22Z"/><circle class="cls-5" cx="138.86" cy="311.47" r="16.06" transform="translate(-196.18 375.05) rotate(-76.72)"/><path class="cls-6" d="M138.33,305.1a3.79,3.79,0,1,1-3.79-3.78A3.79,3.79,0,0,1,138.33,305.1Z"/><path class="cls-7" d="M138.86,321.85a16.06,16.06,0,0,1-15.8-13.22,15.63,15.63,0,0,0-.27,2.84,16.07,16.07,0,0,0,32.13,0,15.63,15.63,0,0,0-.27-2.84A16,16,0,0,1,138.86,321.85Z"/><circle class="cls-5" cx="121.83" cy="271.92" r="16.06" transform="translate(-170.81 328.02) rotate(-76.72)"/><circle class="cls-6" cx="117.51" cy="265.56" r="3.79"/><path class="cls-7" d="M121.83,282.3A16.06,16.06,0,0,1,106,269.08a16.57,16.57,0,0,0-.27,2.84,16.07,16.07,0,1,0,32.13,0,15.63,15.63,0,0,0-.27-2.84A16,16,0,0,1,121.83,282.3Z"/><circle class="cls-5" cx="138.86" cy="345.77" r="16.06"/><path class="cls-6" d="M138.33,339.41a3.79,3.79,0,1,1-3.79-3.79A3.79,3.79,0,0,1,138.33,339.41Z"/><path class="cls-7" d="M138.86,356.15a16,16,0,0,1-15.8-13.22,15.71,15.71,0,0,0-.27,2.84,16.07,16.07,0,1,0,32.13,0,15.71,15.71,0,0,0-.27-2.84A16,16,0,0,1,138.86,356.15Z"/><circle class="cls-5" cx="150.6" cy="360.02" r="16.06" transform="translate(-234.39 423.87) rotate(-76.72)"/><path class="cls-6" d="M150.07,353.65a3.79,3.79,0,1,1-3.79-3.79A3.79,3.79,0,0,1,150.07,353.65Z"/><path class="cls-7" d="M150.6,370.4a16.07,16.07,0,0,1-15.8-13.22,16.57,16.57,0,0,0-.26,2.84,16.06,16.06,0,0,0,32.12,0,16.57,16.57,0,0,0-.26-2.84A16.07,16.07,0,0,1,150.6,370.4Z"/><circle class="cls-5" cx="118.47" cy="331.57" r="16.06" transform="translate(-117.87 70.58) rotate(-22.5)"/><path class="cls-6" d="M117.94,325.2a3.79,3.79,0,1,1-3.78-3.79A3.79,3.79,0,0,1,117.94,325.2Z"/><path class="cls-7" d="M118.47,342a16,16,0,0,1-15.79-13.23,15.82,15.82,0,0,0-.27,2.85,16.07,16.07,0,0,0,32.13,0,15.82,15.82,0,0,0-.27-2.85A16.06,16.06,0,0,1,118.47,342Z"/><circle class="cls-5" cx="166.66" cy="335.62" r="16.06" transform="translate(-198.27 420.71) rotate(-76.72)"/><path class="cls-6" d="M166.13,329.26a3.79,3.79,0,1,1-3.79-3.79A3.78,3.78,0,0,1,166.13,329.26Z"/><path class="cls-7" d="M166.66,346a16,16,0,0,1-15.79-13.22,15.63,15.63,0,0,0-.27,2.84,16.07,16.07,0,0,0,32.13,0,16.57,16.57,0,0,0-.27-2.84A16.06,16.06,0,0,1,166.66,346Z"/><circle class="cls-5" cx="56.01" cy="334.14" r="16.06" transform="translate(-123.61 46.87) rotate(-22.5)"/><path class="cls-6" d="M55.47,327.78A3.79,3.79,0,1,1,51.69,324,3.79,3.79,0,0,1,55.47,327.78Z"/><path class="cls-7" d="M56,344.52a16.06,16.06,0,0,1-15.8-13.22,15.63,15.63,0,0,0-.27,2.84,16.07,16.07,0,1,0,32.13,0,15.63,15.63,0,0,0-.27-2.84A16,16,0,0,1,56,344.52Z"/><circle class="cls-5" cx="86.08" cy="327.78" r="16.06" transform="translate(-206.56 156.88) rotate(-45)"/><path class="cls-6" d="M85.55,321.41a3.79,3.79,0,1,1-3.78-3.78A3.78,3.78,0,0,1,85.55,321.41Z"/><path class="cls-7" d="M86.08,338.16a16,16,0,0,1-15.79-13.22,15.63,15.63,0,0,0-.27,2.84,16.07,16.07,0,0,0,32.13,0,15.63,15.63,0,0,0-.27-2.84A16.06,16.06,0,0,1,86.08,338.16Z"/></g><g class="cls-8"><path class="cls-6" d="M159.61,328.18c-1.19,12-9.15,20.6-18.12,19.65l-16.4-1.73c-3,3.76-3.72,10-1.84,15a8,8,0,0,0,.82,1.63H155c9,0,16.43-9.45,16.92-21.5L181.1,111.8Z"/></g><path class="cls-9" d="M206.29,38.23H7.17c-4.49,0-7.87-3.1-7-6.45L6.86,4.45C7.5,1.87,10.46,0,13.91,0H199.55c3.45,0,6.41,1.87,7,4.45l6.74,27.33C214.16,35.13,210.78,38.23,206.29,38.23Z"/><path class="cls-4" d="M22,70.18s4-20.77,11.48-20.77H181.1s11,6.88,10.59,16l1.22-27.16H20.55Z"/><path d="M90.67,163.41H60.81V83.86h65v.58h-64v3.33c0,23.89.05,47.79-.07,71.68,0,2.74,1,3.46,4,3.39,8.29-.16,16.6-.05,24.9-.05Z"/><path d="M152.33,163.41h-28.7l0-.62h3.63c7.13,0,14.27-.06,21.4,0,2.17,0,3-.49,3-2.51q-.1-37-.06-73.91c0-.46-.1-.91-.21-1.81H136.51V83.9h15.81Z"/><path d="M105.22,124.38l.74-4.28.75-.08.91,4.25h19.45v1H107.12v28.07H106V125.42H86.36v-1Z"/><path d="M143.9,124.48c-2.56-.86-5.13-1.68-7.66-2.58-8.88-3.15-17.7-6.43-26.64-9.43a10,10,0,0,0-5.76,0c-10.54,3.56-21,7.36-31.46,11.07-1,.36-2.07.64-3.11,1l-.37-.7a15.07,15.07,0,0,1,2-1c10.86-3.9,21.7-7.85,32.65-11.56a10.45,10.45,0,0,1,6.09-.09c11.05,3.74,22,7.74,32.93,11.67a16.27,16.27,0,0,1,1.77.89Z"/><path d="M138.07,101.06h-15l-.87,4.4-1.06,0-.37-3.89h-4.33l-.88,4-.94-.06-.45-4-5.33-.42,0-.93,5.38-.37.35-5.24,1.18-.08.56,5.24h4.46l.36-5.09,1.11-.12.76,5.5h15Z"/><path d="M91.83,105.32l-.5-4.25H75.65l0-1H91.35l.44-5.49.89,0,.62,5.22h4.07l.48-5.25,1.1,0,.69,5.24,5.39.47,0,.79-5.44.58L99,105.44H98l-.6-4h-4.1l-.47,3.81Z"/><path d="M89.27,153.34v-20.2C90.71,134.64,90.93,150.22,89.27,153.34Z"/><path d="M124.87,153.33V133.49C126.38,135.05,126.58,150.33,124.87,153.33Z"/><text class="cls-10" transform="translate(102.15 178.91) rotate(90) scale(1.5 1)">möge tee</text></g></g></g></svg>